<svg width="31" height="26" viewBox="0 0 31 26" fill="none" xmlns="http://www.w3.org/2000/svg">
<path fill-rule="evenodd" clip-rule="evenodd" d="M9.89317 0.563937C10.4807 0.422033 11.0909 0.679963 11.4108 1.20534L12.7582 3.41852H18.2418L19.5892 1.20534C19.909 0.679963 20.5193 0.422033 21.1068 0.563937L27.0954 2.01046C27.5713 2.12537 27.955 2.48514 28.1095 2.9611L30.1685 9.30196C30.7192 10.9982 31 12.7745 31 14.5624V20.7768C31 21.3683 30.6491 21.9002 30.1142 22.1199L23.0688 25.0129C22.5455 25.2277 21.9477 25.1019 21.5491 24.6927L19.1436 22.2233H11.8564L9.45093 24.6927C9.05234 25.1019 8.45459 25.2277 7.93122 25.0129L0.885769 22.1199C0.350793 21.9002 0 21.3683 0 20.7768V14.5624C0 12.7745 0.28079 10.9982 0.831561 9.30196L2.8905 2.9611C3.04505 2.48514 3.4288 2.12537 3.90453 2.01046L9.89317 0.563937ZM10.5682 9.92787C8.62264 9.92787 7.04545 11.547 7.04545 13.5442C7.04545 15.5414 8.62264 17.1605 10.5682 17.1605C12.5137 17.1605 14.0909 15.5414 14.0909 13.5442C14.0909 11.547 12.5137 9.92787 10.5682 9.92787ZM16.9091 13.5442C16.9091 11.547 18.4863 9.92787 20.4318 9.92787C22.3773 9.92787 23.9545 11.547 23.9545 13.5442C23.9545 15.5414 22.3773 17.1605 20.4318 17.1605C18.4863 17.1605 16.9091 15.5414 16.9091 13.5442Z" fill="white"/>
</svg>
