<svg width="30" height="29" viewBox="0 0 30 29" fill="none" xmlns="http://www.w3.org/2000/svg">
<path fill-rule="evenodd" clip-rule="evenodd" d="M25.8814 0.400391C27.8234 0.400391 29.4 1.94423 29.4 3.84575V25.155C29.4 27.0566 27.8233 28.6004 25.8814 28.6004H4.1187C2.17672 28.6004 0.600037 27.0566 0.600037 25.155V3.84575C0.600037 1.94423 2.17667 0.400391 4.1187 0.400391L25.8814 0.400391ZM15 4.86172C12.3266 4.86172 11.9914 4.87279 10.9415 4.91972C9.89372 4.96653 9.17816 5.12945 8.55199 5.36778C7.90466 5.61409 7.35572 5.94367 6.80846 6.47947C6.26121 7.01533 5.9246 7.55289 5.67306 8.18668C5.42972 8.7998 5.26333 9.50045 5.21546 10.5264C5.16759 11.5544 5.15629 11.8827 5.15629 14.5004C5.15629 17.1181 5.16759 17.4464 5.21546 18.4744C5.26333 19.5003 5.42972 20.201 5.67306 20.8141C5.9246 21.4479 6.26121 21.9855 6.80846 22.5213C7.35572 23.0572 7.90466 23.3868 8.55199 23.6331C9.17816 23.8713 9.89372 24.0343 10.9415 24.0811C11.9914 24.128 12.3266 24.1391 15 24.1391C17.6734 24.1391 18.0087 24.128 19.0586 24.0811C20.1064 24.0343 20.8219 23.8713 21.4481 23.6331C22.0954 23.3868 22.6444 23.0572 23.1916 22.5213C23.7389 21.9855 24.0755 21.4479 24.327 20.8141C24.5704 20.201 24.7367 19.5003 24.7846 18.4744C24.8325 17.4464 24.8438 17.1181 24.8438 14.5004C24.8438 11.8827 24.8325 11.5544 24.7846 10.5264C24.7367 9.50045 24.5704 8.7998 24.327 8.18668C24.0755 7.55289 23.7389 7.01533 23.1916 6.47947C22.6444 5.94367 22.0954 5.61409 21.4481 5.36778C20.8219 5.12945 20.1064 4.96653 19.0586 4.91972C18.0087 4.87279 17.6734 4.86172 15 4.86172ZM15 6.59844C17.6284 6.59844 17.9398 6.60825 18.9778 6.65462C19.9375 6.69753 20.4587 6.85456 20.8056 6.98647C21.2651 7.16134 21.593 7.37025 21.9375 7.7075C22.2819 8.04479 22.4952 8.3659 22.6738 8.81578C22.8086 9.15544 22.969 9.6658 23.0127 10.6055C23.0601 11.6219 23.0702 11.9268 23.0702 14.5004C23.0702 17.074 23.0601 17.3789 23.0127 18.3952C22.969 19.335 22.8086 19.8453 22.6738 20.185C22.4952 20.6349 22.2819 20.956 21.9375 21.2933C21.593 21.6306 21.2651 21.8394 20.8056 22.0143C20.4587 22.1463 19.9375 22.3033 18.9778 22.3462C17.9399 22.3925 17.6286 22.4024 15 22.4024C12.3715 22.4024 12.0602 22.3925 11.0223 22.3462C10.0626 22.3033 9.54137 22.1463 9.19447 22.0143C8.73497 21.8394 8.40709 21.6306 8.06261 21.2933C7.71814 20.956 7.50478 20.6349 7.32624 20.185C7.19147 19.8453 7.0311 19.335 6.98728 18.3952C6.93992 17.3789 6.9299 17.074 6.9299 14.5004C6.9299 11.9268 6.93992 11.6219 6.98728 10.6055C7.0311 9.6658 7.19147 9.15544 7.32624 8.81578C7.50478 8.3659 7.71814 8.04479 8.06261 7.7075C8.40709 7.37025 8.73497 7.16134 9.19447 6.98647C9.54137 6.85456 10.0626 6.69753 11.0223 6.65462C12.0603 6.60825 12.3716 6.59844 15 6.59844ZM15 9.55079C12.2083 9.55079 9.94513 11.7668 9.94513 14.5004C9.94513 17.234 12.2083 19.45 15 19.45C17.7918 19.45 20.0549 17.234 20.0549 14.5004C20.0549 11.7668 17.7918 9.55079 15 9.55079ZM15 17.7133C13.1878 17.7133 11.7188 16.2748 11.7188 14.5004C11.7188 12.7259 13.1878 11.2875 15 11.2875C16.8122 11.2875 18.2813 12.7259 18.2813 14.5004C18.2813 16.2748 16.8122 17.7133 15 17.7133ZM21.4359 9.35527C21.4359 9.99406 20.907 10.5119 20.2546 10.5119C19.6023 10.5119 19.0734 9.99406 19.0734 9.35527C19.0734 8.71647 19.6023 8.19863 20.2546 8.19863C20.907 8.19863 21.4359 8.71647 21.4359 9.35527Z" fill="white"/>
</svg>
