<svg width="32" height="31" viewBox="0 0 32 31" fill="none" xmlns="http://www.w3.org/2000/svg">
<path d="M27.496 0H4.50402C3.30948 0 2.16386 0.459695 1.3192 1.27796C0.474529 2.09624 0 3.20604 0 4.36325V26.6368C0 27.794 0.474529 28.9038 1.3192 29.722C2.16386 30.5402 3.30948 31 4.50402 31H27.496C28.6906 31 29.8362 30.5402 30.6808 29.722C31.5256 28.9038 32 27.794 32 26.6368V4.36325C32 3.20604 31.5256 2.09624 30.6808 1.27796C29.8362 0.459695 28.6906 0 27.496 0ZM10.668 24.769C10.668 24.8465 10.614 24.9628 10.508 25.1197C10.348 25.2243 10.226 25.2747 10.146 25.2747H6.44602C6.36602 25.2747 6.24602 25.2243 6.08602 25.1197C5.97802 24.9647 5.92402 24.8484 5.92402 24.769V12.1869C5.92402 12.1094 5.97802 11.9931 6.08402 11.8381C6.24402 11.7335 6.36402 11.6812 6.44602 11.6812H10.146C10.226 11.6812 10.346 11.7335 10.506 11.8362C10.614 11.9912 10.668 12.1074 10.668 12.1869V24.769ZM10.066 9.53831C9.83607 9.76612 9.56039 9.94588 9.25597 10.0665C8.95155 10.1871 8.62485 10.2461 8.29603 10.2397C7.59803 10.2397 7.01003 10.0072 6.52602 9.53831C6.29076 9.31561 6.10512 9.04857 5.9806 8.75364C5.85608 8.45872 5.7953 8.14219 5.80202 7.82362C5.80202 7.17456 6.04402 6.61656 6.52602 6.14962C6.75339 5.91587 7.02769 5.72961 7.33207 5.60232C7.63645 5.47503 7.96449 5.40935 8.29603 5.40935C8.62755 5.40935 8.95559 5.47503 9.25997 5.60232C9.56435 5.72961 9.83865 5.91587 10.066 6.14962C10.546 6.61462 10.788 7.1765 10.788 7.82362C10.788 8.49981 10.548 9.07137 10.066 9.53831ZM26.39 24.769C26.3894 24.8349 26.375 24.9 26.3474 24.9602C26.32 25.0207 26.28 25.0749 26.23 25.1197C26.1838 25.1679 26.1278 25.2067 26.0656 25.2334C26.0034 25.26 25.9362 25.2741 25.868 25.2747H22.088C22.008 25.2747 21.888 25.2243 21.728 25.1197C21.62 24.9647 21.566 24.8484 21.566 24.769V17.0965C21.566 16.4455 21.446 15.9398 21.204 15.5756C20.908 15.2656 20.426 15.1106 19.756 15.1106C18.8981 15.1106 18.2821 15.3547 17.906 15.8487C17.5581 16.3428 17.384 17.0442 17.384 17.9529V24.769C17.3834 24.8349 17.3689 24.9 17.3414 24.9602C17.3139 25.0207 17.2739 25.0749 17.224 25.1197C17.1775 25.1683 17.1212 25.2071 17.0586 25.2338C16.996 25.2604 16.9284 25.2743 16.86 25.2747H13.16C13.08 25.2747 12.96 25.2243 12.8 25.1197C12.692 24.9647 12.64 24.8484 12.64 24.769V12.1869C12.64 12.1094 12.692 11.9931 12.8 11.8381C12.96 11.7335 13.08 11.6812 13.16 11.6812H16.74C16.848 11.6812 16.954 11.7064 17.06 11.7587C17.116 11.7858 17.17 11.8749 17.222 12.0299V12.2256L17.262 12.3031V12.6151C18.148 11.7858 19.3681 11.3692 20.922 11.3692C22.664 11.3692 24.004 11.7722 24.942 12.5763C25.908 13.4327 26.39 14.6688 26.39 16.2769V24.769Z" fill="white"/>
</svg>
