<svg width="31" height="31" viewBox="0 0 31 31" fill="none" xmlns="http://www.w3.org/2000/svg">
<path d="M21.4392 13.5889C21.0538 12.7227 20.5134 11.9077 19.8028 11.197C19.0917 10.4867 18.2769 9.94587 17.4108 9.56055L16.3378 10.6336L15.5924 11.3786L14.8186 12.1524C14.6748 12.2958 14.5525 12.4517 14.4457 12.6149C15.4728 12.6819 16.4341 13.0961 17.1685 13.8309C17.924 14.5856 18.3168 15.5581 18.3818 16.5474C18.4188 17.0972 18.351 17.6481 18.1745 18.1761C17.9789 18.7632 17.6633 19.317 17.2055 19.7892C17.1911 19.8028 17.1829 19.8199 17.1697 19.834L16.291 20.7118L15.0722 21.9306L13.9353 23.0683L10.9714 26.0323C10.1695 26.8342 9.10423 27.2748 7.96922 27.2748C6.8366 27.2748 5.76932 26.833 4.96706 26.0311C4.16637 25.2304 3.72493 24.1639 3.72493 23.0301C3.72493 21.8963 4.16561 20.8295 4.96746 20.028L7.9357 17.0593C7.76583 16.5329 7.64465 15.994 7.57023 15.4505C7.5149 15.0453 7.47749 14.6373 7.47554 14.229C7.47009 13.4778 7.56282 12.7273 7.7366 11.9925L2.33316 17.3951C-0.77772 20.5071 -0.77772 25.5533 2.33316 28.6655C3.8894 30.2205 5.9287 30.9993 7.96761 30.9993C10.0077 30.9993 12.047 30.2212 13.6025 28.6655L18.9973 23.2706L19.8007 22.468C20.2605 22.0078 20.6443 21.5013 20.9677 20.9691C21.4769 20.1341 21.8233 19.2294 21.9963 18.2958C22.0855 17.8157 22.133 17.3295 22.133 16.8425C22.1342 16.2479 22.0609 15.6545 21.9296 15.0716C21.817 14.565 21.6534 14.069 21.4391 13.589L21.4392 13.5889Z" fill="white"/>
<path d="M28.6668 2.33386C27.1105 0.77802 25.0708 0 23.0323 0C20.9922 0.000389609 18.9529 0.778101 17.3975 2.33426L11.1996 8.53219C10.7394 8.99235 10.356 9.49888 10.0322 10.0304C9.52337 10.8654 9.1766 11.7701 9.00285 12.7037C8.91363 13.1837 8.86609 13.6704 8.86609 14.157C8.8657 14.7516 8.93818 15.345 9.06948 15.9283C9.18403 16.4336 9.34768 16.93 9.56237 17.4104C9.94772 18.2758 10.4877 19.0905 11.1988 19.8012C11.9099 20.5119 12.7242 21.0523 13.5907 21.4381L14.663 20.3658L15.4084 19.6208L16.1814 18.8478C16.3252 18.704 16.4479 18.5481 16.5547 18.3845C15.5272 18.3175 14.5659 17.9041 13.8307 17.1685C13.074 16.4126 12.6813 15.4381 12.6162 14.4465C12.5807 13.8983 12.6501 13.3505 12.8254 12.8233C13.0202 12.2362 13.3355 11.6818 13.7944 11.2103C13.8081 11.1966 13.817 11.1799 13.8311 11.1654L14.7093 10.2872L15.9289 9.06841L17.0666 7.9307L20.0297 4.96794C20.8316 4.16607 21.8973 3.7242 23.0323 3.7242C24.1661 3.7242 25.2322 4.16605 26.0333 4.96754C27.6892 6.62273 27.6892 9.31628 26.0344 10.9711L23.065 13.9397C23.2353 14.4669 23.356 15.005 23.4305 15.5489C23.4862 15.9541 23.5232 16.3621 23.5252 16.77C23.5306 17.5216 23.4383 18.2717 23.2629 19.0065L28.6668 13.6039C31.7776 10.4919 31.7776 5.44612 28.6668 2.33454L28.6668 2.33386Z" fill="white"/>
</svg>
