<svg width="33" height="31" viewBox="0 0 33 31" fill="none" xmlns="http://www.w3.org/2000/svg">
<path d="M28.8581 30.8875H4.09596C3.55558 30.8986 3.01848 30.806 2.51747 30.6154C2.01646 30.4248 1.56208 30.1402 1.18208 29.7789C0.796564 29.4226 0.492952 28.9958 0.290035 28.5248C0.087117 28.0538 -0.010789 27.5486 0.00237497 27.0407V3.85969C-0.0163226 3.35232 0.0755401 2.84672 0.272322 2.37393C0.469104 1.90114 0.766651 1.47114 1.14669 1.11034C1.5308 0.744974 1.99094 0.457956 2.49839 0.267212C3.00584 0.0764668 3.54968 -0.0139075 4.09596 0.00173283H28.8699C29.416 -0.0132428 29.9597 0.077437 30.467 0.268144C30.9744 0.45885 31.4346 0.745513 31.8191 1.11034C32.2026 1.46575 32.505 1.89087 32.7078 2.35976C32.9107 2.82865 33.0097 3.33147 32.9988 3.83751V27.0185C33.012 27.5265 32.9141 28.0316 32.7112 28.5026C32.5083 28.9736 32.2046 29.4005 31.8191 29.7568C31.4352 30.127 30.974 30.4185 30.4644 30.6131C29.9548 30.8078 29.4079 30.9012 28.8581 30.8875ZM22.5112 23.4488C22.7458 23.4685 22.9796 23.4039 23.1657 23.2682C23.3517 23.1325 23.4761 22.9356 23.514 22.7171L26.7818 8.02805C26.7911 7.93337 26.7768 7.83795 26.7399 7.74941C26.7031 7.66086 26.6447 7.58165 26.5694 7.51809C26.4385 7.40133 26.2662 7.33421 26.0857 7.32963C26.0228 7.32963 19.5226 9.58749 6.58515 14.1032C6.43915 14.147 6.3126 14.2348 6.22515 14.3531C6.13769 14.4714 6.09422 14.6134 6.10147 14.7573C6.1097 14.8916 6.16334 15.02 6.25458 15.1236C6.34582 15.2273 6.4699 15.3009 6.60874 15.3338L11.3276 16.7084L13.2269 22.063C13.2765 22.2089 13.3766 22.3351 13.5113 22.4215C13.6459 22.5078 13.8074 22.5495 13.9701 22.5397C14.0582 22.5394 14.1453 22.5226 14.2263 22.4903C14.3074 22.4579 14.3807 22.4106 14.442 22.3513L17.12 19.9567L21.945 23.2825C22.1131 23.3874 22.3095 23.445 22.5112 23.4488ZM13.8875 20.7438L12.4601 16.3093C19.3181 12.2075 22.7708 10.1566 22.8179 10.1566C22.9949 10.1566 23.0893 10.1566 23.0893 10.334C23.0932 10.356 23.0932 10.3785 23.0893 10.4005C23.0893 10.4005 20.1282 12.9503 14.2179 17.939L13.8875 20.7438Z" fill="white"/>
</svg>
