<svg width="28" height="32" viewBox="0 0 28 32" fill="none" xmlns="http://www.w3.org/2000/svg">
<path d="M15.5113 0V21.8185C15.5113 24.2287 13.4808 26.1815 10.9782 26.1815C8.4741 26.1815 6.44518 24.2272 6.44518 21.8185C6.44518 19.4082 8.4757 17.4554 10.9782 17.4554V11.6369C5.1363 11.6369 0.400024 16.1956 0.400024 21.8185C0.400024 27.4413 5.1363 32 10.9782 32C16.8202 32 21.5565 27.4413 21.5565 21.8185V11.6369L21.8749 11.7909C23.6526 12.6472 25.6127 13.0923 27.6 13.0923V7.27231L27.4192 7.22918C23.9726 6.40062 21.5549 3.419 21.5549 0H15.5113Z" fill="white"/>
</svg>
