<svg width="32" height="31" viewBox="0 0 32 31" fill="none" xmlns="http://www.w3.org/2000/svg">
<path fill-rule="evenodd" clip-rule="evenodd" d="M28.0904 0C30.2482 0 32 1.69713 32 3.78745V27.2126C32 29.3029 30.2481 31 28.0904 31H3.90963C1.75188 31 0 29.3029 0 27.2126V3.78745C0 1.69713 1.75181 0 3.90963 0L28.0904 0ZM12.2199 25.7048C20.7161 25.7048 25.3617 18.8846 25.3617 12.9737C25.3617 12.7789 25.3617 12.584 25.3521 12.3984C26.2525 11.7675 27.0379 10.9787 27.6606 10.0786C26.8368 10.4313 25.946 10.6725 25.0073 10.7839C25.9652 10.2271 26.6931 9.35486 27.0379 8.3063C26.1472 8.81666 25.1606 9.18787 24.1069 9.39197C23.264 8.51973 22.0667 7.98153 20.7353 7.98153C18.1874 7.98153 16.1184 9.98588 16.1184 12.4541C16.1184 12.8068 16.1567 13.1501 16.2429 13.4748C12.4019 13.2893 9.00156 11.5077 6.72188 8.79813C6.32913 9.45694 6.09925 10.2271 6.09925 11.0437C6.09925 12.5933 6.91344 13.9667 8.15862 14.7647C7.40194 14.7461 6.69312 14.542 6.0705 14.2079V14.2636C6.0705 16.4349 7.66056 18.2351 9.77744 18.6526C9.39431 18.7547 8.98244 18.8104 8.56094 18.8104C8.264 18.8104 7.97669 18.7826 7.68931 18.7268C8.27362 20.5085 9.97856 21.7983 11.9996 21.8354C10.4192 23.0325 8.42688 23.7469 6.26213 23.7469C5.88856 23.7469 5.52456 23.7284 5.16056 23.6819C7.18163 24.9625 9.61456 25.7048 12.2199 25.7048Z" fill="white"/>
</svg>
